<svg xmlns="http://www.w3.org/2000/svg" width="2195" height="245" viewBox="0 0 2195 245" fill="none">
<path d="M93.36 157.8V240L0 63.8398L93.36 157.8Z" fill="url(#paint0_linear_750_141)"/>
<path d="M186.72 63.8398L93.3601 240V157.8L186.72 63.8398Z" fill="url(#paint1_linear_750_141)"/>
<path d="M93.3599 134.4V0L148.08 103.32L93.3599 134.4Z" fill="url(#paint2_linear_750_141)"/>
<path d="M38.6399 103.32L93.3599 0V134.4L38.6399 103.32Z" fill="url(#paint3_linear_750_141)"/>
<mask id="path-5-outside-1_750_141" maskUnits="userSpaceOnUse" x="229.72" y="28" width="1965" height="217" fill="black">
<rect fill="white" x="229.72" y="28" width="1965" height="217"/>
<path d="M321.625 239.428C291.322 239.428 260.734 228.849 236.72 207.406L262.735 176.242C280.745 191.109 299.613 200.544 322.483 200.544C340.493 200.544 351.356 193.396 351.356 181.674V181.102C351.356 169.952 344.495 164.233 311.048 155.656C270.739 145.363 244.725 134.213 244.725 94.471V93.8992C244.725 57.5884 273.884 33.5718 314.764 33.5718C343.924 33.5718 368.795 42.721 389.092 59.0179L366.222 92.1837C348.498 79.8895 331.059 72.4558 314.192 72.4558C297.326 72.4558 288.464 80.1754 288.464 89.8964V90.4682C288.464 103.62 297.04 107.909 331.631 116.772C372.225 127.351 395.096 141.932 395.096 176.814V177.385C395.096 217.127 364.793 239.428 321.625 239.428Z"/>
<path d="M433.302 236.569V36.4309H477.327V196.541H577.098V236.569H433.302Z"/>
<path d="M612.301 236.569V36.4309H656.326V236.569H612.301Z"/>
<path d="M800.104 240C741.214 240 697.475 194.54 697.475 137.072V136.5C697.475 79.6036 740.356 33 801.819 33C839.555 33 862.139 45.5801 880.721 63.8784L852.706 96.1865C837.268 82.1768 821.545 73.5994 801.534 73.5994C767.8 73.5994 743.501 101.619 743.501 135.928V136.5C743.501 170.809 767.228 199.401 801.534 199.401C824.404 199.401 838.412 190.251 854.135 175.956L882.151 204.261C861.568 226.276 838.698 240 800.104 240Z"/>
<path d="M917.394 236.569V36.4309H1068.34V75.6008H961.133V116.2H1055.47V155.37H961.133V197.399H1069.77V236.569H917.394Z"/>
<path d="M1108.91 236.569V36.4309H1200.39C1225.83 36.4309 1245.56 43.5787 1258.71 56.7307C1269.86 67.8812 1275.86 83.6064 1275.86 102.477V103.048C1275.86 135.356 1258.42 155.656 1232.98 165.091L1281.86 236.569H1230.41L1187.52 172.525H1152.93V236.569H1108.91ZM1152.93 133.641H1197.53C1218.97 133.641 1231.26 122.204 1231.26 105.336V104.764C1231.26 85.8936 1218.11 76.1726 1196.67 76.1726H1152.93V133.641Z"/>
<path d="M1298.35 236.569L1384.11 35.0014H1424.7L1510.47 236.569H1464.44L1446.14 191.681H1361.53L1343.23 236.569H1298.35ZM1377.25 152.797H1430.42L1403.84 87.895L1377.25 152.797Z"/>
<path d="M1543.35 236.569V36.4309H1587.38V236.569H1543.35Z"/>
<path d="M1708.57 239.428C1678.27 239.428 1647.68 228.849 1623.67 207.406L1649.68 176.242C1667.69 191.109 1686.56 200.544 1709.43 200.544C1727.44 200.544 1738.3 193.396 1738.3 181.674V181.102C1738.3 169.952 1731.44 164.233 1698 155.656C1657.69 145.363 1631.67 134.213 1631.67 94.471V93.8992C1631.67 57.5884 1660.83 33.5718 1701.71 33.5718C1730.87 33.5718 1755.74 42.721 1776.04 59.0179L1753.17 92.1837C1735.45 79.8895 1718.01 72.4558 1701.14 72.4558C1684.27 72.4558 1675.41 80.1754 1675.41 89.8964V90.4682C1675.41 103.62 1683.99 107.909 1718.58 116.772C1759.17 127.351 1782.04 141.932 1782.04 176.814V177.385C1782.04 217.127 1751.74 239.428 1708.57 239.428Z"/>
<path d="M1820.25 236.569V36.4309H1971.19V75.6008H1863.99V116.2H1958.33V155.37H1863.99V197.399H1972.62V236.569H1820.25Z"/>
<path d="M2011.76 236.569V36.4309H2103.25C2128.69 36.4309 2148.41 43.5787 2161.56 56.7307C2172.71 67.8812 2178.72 83.6064 2178.72 102.477V103.048C2178.72 135.356 2161.28 155.656 2135.84 165.091L2184.72 236.569H2133.26L2090.38 172.525H2055.79V236.569H2011.76ZM2055.79 133.641H2100.39C2121.83 133.641 2134.12 122.204 2134.12 105.336V104.764C2134.12 85.8936 2120.97 76.1726 2099.53 76.1726H2055.79V133.641Z"/>
</mask>
<path d="M321.625 239.428C291.322 239.428 260.734 228.849 236.72 207.406L262.735 176.242C280.745 191.109 299.613 200.544 322.483 200.544C340.493 200.544 351.356 193.396 351.356 181.674V181.102C351.356 169.952 344.495 164.233 311.048 155.656C270.739 145.363 244.725 134.213 244.725 94.471V93.8992C244.725 57.5884 273.884 33.5718 314.764 33.5718C343.924 33.5718 368.795 42.721 389.092 59.0179L366.222 92.1837C348.498 79.8895 331.059 72.4558 314.192 72.4558C297.326 72.4558 288.464 80.1754 288.464 89.8964V90.4682C288.464 103.62 297.04 107.909 331.631 116.772C372.225 127.351 395.096 141.932 395.096 176.814V177.385C395.096 217.127 364.793 239.428 321.625 239.428Z" fill="#1E3A8A"/>
<path d="M433.302 236.569V36.4309H477.327V196.541H577.098V236.569H433.302Z" fill="#1E3A8A"/>
<path d="M612.301 236.569V36.4309H656.326V236.569H612.301Z" fill="#1E3A8A"/>
<path d="M800.104 240C741.214 240 697.475 194.54 697.475 137.072V136.5C697.475 79.6036 740.356 33 801.819 33C839.555 33 862.139 45.5801 880.721 63.8784L852.706 96.1865C837.268 82.1768 821.545 73.5994 801.534 73.5994C767.8 73.5994 743.501 101.619 743.501 135.928V136.5C743.501 170.809 767.228 199.401 801.534 199.401C824.404 199.401 838.412 190.251 854.135 175.956L882.151 204.261C861.568 226.276 838.698 240 800.104 240Z" fill="#1E3A8A"/>
<path d="M917.394 236.569V36.4309H1068.34V75.6008H961.133V116.2H1055.47V155.37H961.133V197.399H1069.77V236.569H917.394Z" fill="#1E3A8A"/>
<path d="M1108.91 236.569V36.4309H1200.39C1225.83 36.4309 1245.56 43.5787 1258.71 56.7307C1269.86 67.8812 1275.86 83.6064 1275.86 102.477V103.048C1275.86 135.356 1258.42 155.656 1232.98 165.091L1281.86 236.569H1230.41L1187.52 172.525H1152.93V236.569H1108.91ZM1152.93 133.641H1197.53C1218.97 133.641 1231.26 122.204 1231.26 105.336V104.764C1231.26 85.8936 1218.11 76.1726 1196.67 76.1726H1152.93V133.641Z" fill="#1E3A8A"/>
<path d="M1298.35 236.569L1384.11 35.0014H1424.7L1510.47 236.569H1464.44L1446.14 191.681H1361.53L1343.23 236.569H1298.35ZM1377.25 152.797H1430.42L1403.84 87.895L1377.25 152.797Z" fill="#1E3A8A"/>
<path d="M1543.35 236.569V36.4309H1587.38V236.569H1543.35Z" fill="#1E3A8A"/>
<path d="M1708.57 239.428C1678.27 239.428 1647.68 228.849 1623.67 207.406L1649.68 176.242C1667.69 191.109 1686.56 200.544 1709.43 200.544C1727.44 200.544 1738.3 193.396 1738.3 181.674V181.102C1738.3 169.952 1731.44 164.233 1698 155.656C1657.69 145.363 1631.67 134.213 1631.67 94.471V93.8992C1631.67 57.5884 1660.83 33.5718 1701.71 33.5718C1730.87 33.5718 1755.74 42.721 1776.04 59.0179L1753.17 92.1837C1735.45 79.8895 1718.01 72.4558 1701.14 72.4558C1684.27 72.4558 1675.41 80.1754 1675.41 89.8964V90.4682C1675.41 103.62 1683.99 107.909 1718.58 116.772C1759.17 127.351 1782.04 141.932 1782.04 176.814V177.385C1782.04 217.127 1751.74 239.428 1708.57 239.428Z" fill="#1E3A8A"/>
<path d="M1820.25 236.569V36.4309H1971.19V75.6008H1863.99V116.2H1958.33V155.37H1863.99V197.399H1972.62V236.569H1820.25Z" fill="#1E3A8A"/>
<path d="M2011.76 236.569V36.4309H2103.25C2128.69 36.4309 2148.41 43.5787 2161.56 56.7307C2172.71 67.8812 2178.72 83.6064 2178.72 102.477V103.048C2178.72 135.356 2161.28 155.656 2135.84 165.091L2184.72 236.569H2133.26L2090.38 172.525H2055.79V236.569H2011.76ZM2055.79 133.641H2100.39C2121.83 133.641 2134.12 122.204 2134.12 105.336V104.764C2134.12 85.8936 2120.97 76.1726 2099.53 76.1726H2055.79V133.641Z" fill="#1E3A8A"/>
<path d="M321.625 239.428C291.322 239.428 260.734 228.849 236.72 207.406L262.735 176.242C280.745 191.109 299.613 200.544 322.483 200.544C340.493 200.544 351.356 193.396 351.356 181.674V181.102C351.356 169.952 344.495 164.233 311.048 155.656C270.739 145.363 244.725 134.213 244.725 94.471V93.8992C244.725 57.5884 273.884 33.5718 314.764 33.5718C343.924 33.5718 368.795 42.721 389.092 59.0179L366.222 92.1837C348.498 79.8895 331.059 72.4558 314.192 72.4558C297.326 72.4558 288.464 80.1754 288.464 89.8964V90.4682C288.464 103.62 297.04 107.909 331.631 116.772C372.225 127.351 395.096 141.932 395.096 176.814V177.385C395.096 217.127 364.793 239.428 321.625 239.428Z" stroke="#1E3A8A" stroke-width="10" mask="url(#path-5-outside-1_750_141)"/>
<path d="M433.302 236.569V36.4309H477.327V196.541H577.098V236.569H433.302Z" stroke="#1E3A8A" stroke-width="10" mask="url(#path-5-outside-1_750_141)"/>
<path d="M612.301 236.569V36.4309H656.326V236.569H612.301Z" stroke="#1E3A8A" stroke-width="10" mask="url(#path-5-outside-1_750_141)"/>
<path d="M800.104 240C741.214 240 697.475 194.54 697.475 137.072V136.5C697.475 79.6036 740.356 33 801.819 33C839.555 33 862.139 45.5801 880.721 63.8784L852.706 96.1865C837.268 82.1768 821.545 73.5994 801.534 73.5994C767.8 73.5994 743.501 101.619 743.501 135.928V136.5C743.501 170.809 767.228 199.401 801.534 199.401C824.404 199.401 838.412 190.251 854.135 175.956L882.151 204.261C861.568 226.276 838.698 240 800.104 240Z" stroke="#1E3A8A" stroke-width="10" mask="url(#path-5-outside-1_750_141)"/>
<path d="M917.394 236.569V36.4309H1068.34V75.6008H961.133V116.2H1055.47V155.37H961.133V197.399H1069.77V236.569H917.394Z" stroke="#1E3A8A" stroke-width="10" mask="url(#path-5-outside-1_750_141)"/>
<path d="M1108.91 236.569V36.4309H1200.39C1225.83 36.4309 1245.56 43.5787 1258.71 56.7307C1269.86 67.8812 1275.86 83.6064 1275.86 102.477V103.048C1275.86 135.356 1258.42 155.656 1232.98 165.091L1281.86 236.569H1230.41L1187.52 172.525H1152.93V236.569H1108.91ZM1152.93 133.641H1197.53C1218.97 133.641 1231.26 122.204 1231.26 105.336V104.764C1231.26 85.8936 1218.11 76.1726 1196.67 76.1726H1152.93V133.641Z" stroke="#1E3A8A" stroke-width="10" mask="url(#path-5-outside-1_750_141)"/>
<path d="M1298.35 236.569L1384.11 35.0014H1424.7L1510.47 236.569H1464.44L1446.14 191.681H1361.53L1343.23 236.569H1298.35ZM1377.25 152.797H1430.42L1403.84 87.895L1377.25 152.797Z" stroke="#1E3A8A" stroke-width="10" mask="url(#path-5-outside-1_750_141)"/>
<path d="M1543.35 236.569V36.4309H1587.38V236.569H1543.35Z" stroke="#1E3A8A" stroke-width="10" mask="url(#path-5-outside-1_750_141)"/>
<path d="M1708.57 239.428C1678.27 239.428 1647.68 228.849 1623.67 207.406L1649.68 176.242C1667.69 191.109 1686.56 200.544 1709.43 200.544C1727.44 200.544 1738.3 193.396 1738.3 181.674V181.102C1738.3 169.952 1731.44 164.233 1698 155.656C1657.69 145.363 1631.67 134.213 1631.67 94.471V93.8992C1631.67 57.5884 1660.83 33.5718 1701.71 33.5718C1730.87 33.5718 1755.74 42.721 1776.04 59.0179L1753.17 92.1837C1735.45 79.8895 1718.01 72.4558 1701.14 72.4558C1684.27 72.4558 1675.41 80.1754 1675.41 89.8964V90.4682C1675.41 103.62 1683.99 107.909 1718.58 116.772C1759.17 127.351 1782.04 141.932 1782.04 176.814V177.385C1782.04 217.127 1751.74 239.428 1708.57 239.428Z" stroke="#1E3A8A" stroke-width="10" mask="url(#path-5-outside-1_750_141)"/>
<path d="M1820.25 236.569V36.4309H1971.19V75.6008H1863.99V116.2H1958.33V155.37H1863.99V197.399H1972.62V236.569H1820.25Z" stroke="#1E3A8A" stroke-width="10" mask="url(#path-5-outside-1_750_141)"/>
<path d="M2011.76 236.569V36.4309H2103.25C2128.69 36.4309 2148.41 43.5787 2161.56 56.7307C2172.71 67.8812 2178.72 83.6064 2178.72 102.477V103.048C2178.72 135.356 2161.28 155.656 2135.84 165.091L2184.72 236.569H2133.26L2090.38 172.525H2055.79V236.569H2011.76ZM2055.79 133.641H2100.39C2121.83 133.641 2134.12 122.204 2134.12 105.336V104.764C2134.12 85.8936 2120.97 76.1726 2099.53 76.1726H2055.79V133.641Z" stroke="#1E3A8A" stroke-width="10" mask="url(#path-5-outside-1_750_141)"/>
<defs>
<linearGradient id="paint0_linear_750_141" x1="93.8436" y1="-288.847" x2="-219.663" y2="229.399" gradientUnits="userSpaceOnUse">
<stop stop-color="#DEC187"/>
<stop offset="1" stop-color="#877145"/>
</linearGradient>
<linearGradient id="paint1_linear_750_141" x1="-130.344" y1="17.341" x2="163.536" y2="645.011" gradientUnits="userSpaceOnUse">
<stop stop-color="#D4AF37"/>
<stop offset="0.489" stop-color="#AE8C61"/>
<stop offset="1" stop-color="#937144"/>
</linearGradient>
<linearGradient id="paint2_linear_750_141" x1="121.572" y1="405.488" x2="347.235" y2="32.4542" gradientUnits="userSpaceOnUse">
<stop stop-color="#DEC187"/>
<stop offset="1" stop-color="#877145"/>
</linearGradient>
<linearGradient id="paint3_linear_750_141" x1="299.96" y1="147.65" x2="86.1458" y2="-309.016" gradientUnits="userSpaceOnUse">
<stop stop-color="#D4AF37"/>
<stop offset="0.489" stop-color="#AE8C61"/>
<stop offset="1" stop-color="#937144"/>
</linearGradient>
</defs>
</svg>